<svg clip-rule="evenodd" fill-rule="evenodd" stroke-linecap="round" stroke-linejoin="round" viewBox="0 0 64 64" xmlns="http://www.w3.org/2000/svg"><g fill="none"><path d="m-.000438-.001h64v64h-64z"/><g stroke-width="2" transform="matrix(3.11111 0 0 3.11111 -5.3337 -5.334)"><path d="m8.684 13.342 6.632 3.316" stroke="#676e78"/><path d="m8.684 10.658 6.632-3.316" stroke="#676e78"/><path d="m15.316 16.658c-.202.404-.316.86-.316 1.342 0 1.657 1.343 3 3 3s3-1.343 3-3-1.343-3-3-3c-1.175 0-2.191.675-2.684 1.658z" stroke="#88c200"/><path d="m8.684 13.342c.202-.404.316-.86.316-1.342s-.114-.938-.316-1.342m0 2.684c-.493.983-1.51 1.658-2.684 1.658-1.657 0-3-1.343-3-3s1.343-3 3-3c1.174 0 2.191.675 2.684 1.658" stroke="#c44d58"/><path d="m15.316 7.342c.493.983 1.51 1.658 2.684 1.658 1.657 0 3-1.343 3-3s-1.343-3-3-3-3 1.343-3 3c0 .482.114.938.316 1.342z" stroke="#8fcceb"/></g></g></svg>