<svg height="34" viewbox="0 0 34 34" width="34" xmlns="http://www.w3.org/2000/svg">
  <path d="M17 34c9.4 0 17-7.6 17-17S26.4 0 17 0 0 7.6 0 17s7.6 17 17 17" fill="#D30E60">
  </path>
  <path d="M14.2 24.6c-2 0-3.5-1.3-3.5-2.8 0-1.5 1.8-2.8 3.8-2.7.5 0 .9.1 1.3.2 1.1.8 1.9 1.2 2.1 2.1 0 .2.1.4.1.5 0 1.5-1 2.7-3.8 2.7m.5-9c-1.4 0-2.6-1.5-2.9-3.3-.2-1.8.7-3.1 2-3.1 1.4 0 2.6 1.5 2.9 3.3.3 1.7-.6 3.1-2 3.1m2.8 2.6c-.5-.3-1.4-1.2-1.4-1.6 0-.6.2-.8 1-1.5.9-.7 1.5-1.6 1.5-2.7 0-1.3-.6-2.6-1.7-3h1.7l1.2-.9h-5.3c-2.4 0-4.6 1.8-4.6 3.9 0 2.1 1.6 3.8 4 3.8h.5c-.2.3-.3.6-.3 1 0 .6.3 1.1.7 1.5h-.9c-2.9 0-5.2 1.9-5.2 3.8s2.5 3.1 5.4 3.1c3.3 0 5.2-1.9 5.2-3.8.1-1.7-.4-2.6-1.8-3.6m7.7-2.4h-2v-2h-1.6v2h-2v1.6h2v2h1.6v-2h2v-1.6z" fill="#FFF">
  </path>
</svg>
