<svg xmlns="http://www.w3.org/2000/svg" width="34" height="34" viewBox="0 0 34 34">
	<circle fill="#3088D4" cx="17" cy="17" r="17"/>
	<path fill="#FFFFFF" d="M28.605,15.31v10.206h-4.043v-9.908c0-2.09-0.879-3.148-2.636-3.148c-1.942,0-2.918,1.256-2.918,3.742v5.423
		H14.99v-5.421c0-2.487-0.973-3.744-2.917-3.744c-1.757,0-2.636,1.06-2.636,3.147v9.907H5.395V15.308c0-2.085,0.53-3.742,1.597-4.97
		c1.1-1.225,2.54-1.853,4.328-1.853c2.07,0,3.635,0.795,4.67,2.386L17,12.56l1.007-1.69c1.036-1.59,2.604-2.385,4.67-2.385
		c1.79,0,3.23,0.63,4.33,1.854c1.066,1.225,1.597,2.883,1.597,4.97"/>
</svg>
