<svg clip-rule="evenodd" fill-rule="evenodd" stroke-linejoin="round" stroke-miterlimit="2" viewBox="0 0 34 34" xmlns="http://www.w3.org/2000/svg"><path d="m17 34c9.4 0 17-7.6 17-17s-7.6-17-17-17-17 7.6-17 17 7.6 17 17 17" fill="#666" fill-rule="nonzero"/><path d="m23 5.5c0 2.485-2.015 4.5-4.5 4.5-1.401 0-2.652-.64-3.477-1.643l-5.15 2.575c.083.341.127.698.127 1.065 0 .369-.044.728-.128 1.071l5.151 2.575c.825-1.003 2.076-1.643 3.477-1.643 2.485 0 4.5 2.015 4.5 4.5s-2.015 4.5-4.5 4.5-4.5-2.015-4.5-4.5c0-.368.044-.726.128-1.068l-5.152-2.576c-.826 1.002-2.076 1.641-3.476 1.641-2.485 0-4.5-2.015-4.5-4.5s2.015-4.5 4.5-4.5c1.402 0 2.654.641 3.479 1.646l5.149-2.575c-.084-.342-.128-.7-.128-1.068 0-2.485 2.015-4.5 4.5-4.5s4.5 2.015 4.5 4.5zm-6.997 0c0 1.379 1.118 2.497 2.497 2.497s2.497-1.118 2.497-2.497-1.118-2.497-2.497-2.497-2.497 1.118-2.497 2.497zm0 13c0 1.379 1.118 2.497 2.497 2.497s2.497-1.118 2.497-2.497-1.118-2.497-2.497-2.497-2.497 1.118-2.497 2.497zm-10.503-4.006c-1.379 0-2.497-1.118-2.497-2.497s1.118-2.497 2.497-2.497 2.497 1.118 2.497 2.497-1.118 2.497-2.497 2.497z" fill="#fff" transform="matrix(.909091 0 0 .909091 5.09091 6.09091)"/></svg>